<svg xmlns="http://www.w3.org/2000/svg" data-v-fde0c5aa="" width="488.9999997871263" height="105.35714283433504" style=""><rect id="backgroundrect" width="100%" height="100%" x="0" y="0" fill="none" stroke="none" class="" style=""/><!----><defs data-v-fde0c5aa=""><!----></defs><defs data-v-fde0c5aa=""><!----></defs><defs data-v-fde0c5aa=""><linearGradient data-v-fde0c5aa="" gradientTransform="rotate(25)" id="dbaaa8b2-89ed-41c0-a28d-7df1634e2f10" x1="0%" y1="0%" x2="100%" y2="0%"><stop data-v-fde0c5aa="" offset="0%" stop-color="#420F14" stop-opacity="1"/><stop data-v-fde0c5aa="" offset="100%" stop-color="#C5545E" stop-opacity="1"/></linearGradient></defs><!----><g class="currentLayer" style=""><title>Layer 1</title><g data-v-fde0c5aa="" id="45f28ed3-0255-4201-b9b9-edab163e909f" fill="#000000" class=""><path d="M148.37229003361844,68.14394969583255 L148.37229003361844,68.14394969583255 L152.55932025651973,68.14394969583255 L152.55932025651973,76.3761929769491 L142.76466027080437,76.3761929769491 L142.76466027080437,76.3761929769491 Q129.75495922107564,76.3761929769491 129.75495922107564,63.85774038417682 L129.75495922107564,63.85774038417682 L129.75495922107564,18.886560146011057 L143.81141782652963,18.886560146011057 L143.81141782652963,28.9557502749801 L152.55932025651973,28.9557502749801 L152.55932025651973,38.20851958268132 L143.81141782652963,38.20851958268132 L143.81141782652963,63.51756504198187 L143.81141782652963,63.51756504198187 Q143.81141782652963,66.23896777954106 144.9329437790925,67.19145873768679 L144.9329437790925,67.19145873768679 L144.9329437790925,67.19145873768679 Q146.05446973165527,68.14394969583255 148.37229003361844,68.14394969583255 zM174.1673869425634,23.17276945766674 L174.1673869425634,23.17276945766674 L174.1673869425634,23.17276945766674 Q171.92433503743774,25.145786442397185 168.78406237026186,25.145786442397185 L168.78406237026186,25.145786442397185 L168.78406237026186,25.145786442397185 Q165.64378970308587,25.145786442397185 163.3259694011227,23.104734389227794 L163.3259694011227,23.104734389227794 L163.3259694011227,23.104734389227794 Q161.0829174959971,21.06368233605841 161.0829174959971,18.138174393182254 L161.0829174959971,18.138174393182254 L161.0829174959971,18.138174393182254 Q161.0829174959971,15.280701518745115 163.3259694011227,13.171614397136718 L163.3259694011227,13.171614397136718 L163.3259694011227,13.171614397136718 Q165.64378970308587,11.130562343967334 168.78406237026186,11.130562343967334 L168.78406237026186,11.130562343967334 L168.78406237026186,11.130562343967334 Q171.92433503743774,11.130562343967334 174.1673869425634,13.171614397136718 L174.1673869425634,13.171614397136718 L174.1673869425634,13.171614397136718 Q176.41043884768894,15.280701518745115 176.41043884768894,18.206209461621267 L176.41043884768894,18.206209461621267 L176.41043884768894,18.206209461621267 Q176.41043884768894,21.131717404497355 174.1673869425634,23.17276945766674 zM175.81229167298878,75.4237020188034 L161.7558330675348,75.4237020188034 L161.7558330675348,28.9557502749801 L175.81229167298878,28.9557502749801 L175.81229167298878,75.4237020188034 zM199.6634102641581,39.09297547238807 L199.6634102641581,75.4237020188034 L185.6817200555416,75.4237020188034 L185.6817200555416,28.9557502749801 L198.3923475179202,28.9557502749801 L198.3923475179202,31.336977670344364 L198.3923475179202,31.336977670344364 Q201.68215697877116,28.003259316834317 208.26177590047305,28.003259316834317 L208.26177590047305,28.003259316834317 L210.43005940876117,28.003259316834317 L210.43005940876117,28.003259316834317 Q223.43976045848987,28.003259316834317 223.43976045848987,40.589746978045625 L223.43976045848987,40.589746978045625 L223.43976045848987,75.4237020188034 L209.38330185303593,75.4237020188034 L209.38330185303593,39.09297547238807 L209.38330185303593,39.09297547238807 Q209.38330185303593,38.27655465112033 208.85992307517319,37.73227410360848 L208.85992307517319,37.73227410360848 L208.85992307517319,37.73227410360848 Q208.26177590047305,37.18799355609666 207.43932353526037,37.18799355609666 L207.43932353526037,37.18799355609666 L201.68215697877116,37.18799355609666 L201.68215697877116,37.18799355609666 Q200.85970461355845,37.18799355609666 200.2615574388582,37.73227410360848 L200.2615574388582,37.73227410360848 L200.2615574388582,37.73227410360848 Q199.6634102641581,38.27655465112033 199.6634102641581,39.09297547238807 L199.6634102641581,39.09297547238807 zM256.71169705118683,62.29293381008026 L256.71169705118683,28.9557502749801 L270.76815565664083,28.9557502749801 L270.76815565664083,78.96152557763034 L270.76815565664083,78.96152557763034 Q270.76815565664083,91.54801323884163 257.7584546069122,91.54801323884163 L257.7584546069122,91.54801323884163 L247.29087904965917,91.54801323884163 L247.29087904965917,91.54801323884163 Q234.35594639676796,91.54801323884163 234.35594639676796,78.96152557763034 L234.35594639676796,78.96152557763034 L234.35594639676796,77.46475407197278 L247.96379462119683,77.46475407197278 L247.96379462119683,80.52633215172688 L247.96379462119683,80.52633215172688 Q247.96379462119683,81.27471790455569 248.48717339905951,81.81899845206752 L248.48717339905951,81.81899845206752 L248.48717339905951,81.81899845206752 Q249.08532057375967,82.43131406801831 249.9077729389724,82.43131406801831 L249.9077729389724,82.43131406801831 L254.76771873341136,82.43131406801831 L254.76771873341136,82.43131406801831 Q255.590171098624,82.43131406801831 256.1883182733242,81.81899845206752 L256.1883182733242,81.81899845206752 L256.1883182733242,81.81899845206752 Q256.71169705118683,81.27471790455569 256.71169705118683,80.52633215172688 L256.71169705118683,80.52633215172688 L256.71169705118683,71.06945763870864 L256.71169705118683,71.06945763870864 Q253.57142438401098,73.38264996563395 248.11333141487196,73.38264996563395 L248.11333141487196,73.38264996563395 L245.9450479065838,73.38264996563395 L245.9450479065838,73.38264996563395 Q232.93534685685503,73.38264996563395 232.93534685685503,60.7961623044227 L232.93534685685503,60.7961623044227 L232.93534685685503,28.9557502749801 L246.99180546230912,28.9557502749801 L246.99180546230912,62.29293381008026 L246.99180546230912,62.29293381008026 Q246.99180546230912,63.041319562909045 247.58995263700925,63.653635178859844 L247.58995263700925,63.653635178859844 L247.58995263700925,63.653635178859844 Q248.11333141487196,64.19791572637168 249.01055217692218,64.19791572637168 L249.01055217692218,64.19791572637168 L254.76771873341136,64.19791572637168 L254.76771873341136,64.19791572637168 Q255.590171098624,64.19791572637168 256.1883182733242,63.653635178859844 L256.1883182733242,63.653635178859844 L256.1883182733242,63.653635178859844 Q256.71169705118683,63.041319562909045 256.71169705118683,62.29293381008026 L256.71169705118683,62.29293381008026 zM306.20837575762596,32.42553876536808 L306.20837575762596,28.9557502749801 L318.0965508547919,28.9557502749801 L318.0965508547919,75.4237020188034 L306.20837575762596,75.4237020188034 L306.20837575762596,72.02194859685436 L306.20837575762596,72.02194859685436 Q302.99333469361255,76.3761929769491 295.44172661302287,76.3761929769491 L295.44172661302287,76.3761929769491 L293.27344310473484,76.3761929769491 L293.27344310473484,76.3761929769491 Q280.2637420550062,76.3761929769491 280.2637420550062,63.85774038417682 L280.2637420550062,63.85774038417682 L280.2637420550062,40.589746978045625 L280.2637420550062,40.589746978045625 Q280.2637420550062,28.003259316834317 293.27344310473484,28.003259316834317 L293.27344310473484,28.003259316834317 L295.44172661302287,28.003259316834317 L295.44172661302287,28.003259316834317 Q302.99333469361255,28.003259316834317 306.20837575762596,32.42553876536808 L306.20837575762596,32.42553876536808 zM304.0400922493378,65.35451188983437 L304.0400922493378,65.35451188983437 L304.0400922493378,39.09297547238807 L304.0400922493378,39.09297547238807 Q304.0400922493378,38.27655465112033 303.44194507463766,37.73227410360848 L303.44194507463766,37.73227410360848 L303.44194507463766,37.73227410360848 Q302.918566296775,37.18799355609666 302.0213455347248,37.18799355609666 L302.0213455347248,37.18799355609666 L296.26417897823563,37.18799355609666 L296.26417897823563,37.18799355609666 Q295.44172661302287,37.18799355609666 294.9183478351602,37.73227410360848 L294.9183478351602,37.73227410360848 L294.9183478351602,37.73227410360848 Q294.3202006604601,38.27655465112033 294.3202006604601,39.09297547238807 L294.3202006604601,39.09297547238807 L294.3202006604601,65.35451188983437 L294.3202006604601,65.35451188983437 Q294.3202006604601,66.1028976426631 294.9183478351602,66.71521325861394 L294.9183478351602,66.71521325861394 L294.9183478351602,66.71521325861394 Q295.44172661302287,67.25949380612577 296.26417897823563,67.25949380612577 L296.26417897823563,67.25949380612577 L302.0213455347248,67.25949380612577 L302.0213455347248,67.25949380612577 Q302.918566296775,67.25949380612577 303.44194507463766,66.71521325861394 L303.44194507463766,66.71521325861394 L303.44194507463766,66.71521325861394 Q304.0400922493378,66.1028976426631 304.0400922493378,65.35451188983437 zM352.4152450032141,76.3761929769491 L352.4152450032141,76.3761929769491 L350.17219309808854,76.3761929769491 L350.17219309808854,76.3761929769491 Q344.86363692262444,76.3761929769491 341.64859585861115,74.13103571846275 L341.64859585861115,74.13103571846275 L341.64859585861115,90.5955222806959 L327.59213725315703,90.5955222806959 L327.59213725315703,28.9557502749801 L339.4055439534854,28.9557502749801 L339.4055439534854,32.42553876536808 L339.4055439534854,32.42553876536808 Q342.69535341433624,28.003259316834317 350.17219309808854,28.003259316834317 L350.17219309808854,28.003259316834317 L352.4152450032141,28.003259316834317 L352.4152450032141,28.003259316834317 Q365.3501776561053,28.003259316834317 365.3501776561053,40.589746978045625 L365.3501776561053,40.589746978045625 L365.3501776561053,63.85774038417682 L365.3501776561053,63.85774038417682 Q365.3501776561053,76.3761929769491 352.4152450032141,76.3761929769491 zM341.64859585861115,39.09297547238807 L341.64859585861115,39.09297547238807 L341.64859585861115,65.35451188983437 L341.64859585861115,65.35451188983437 Q341.64859585861115,66.1028976426631 342.17197463647375,66.71521325861394 L342.17197463647375,66.71521325861394 L342.17197463647375,66.71521325861394 Q342.77012181117385,67.25949380612577 343.5925741763866,67.25949380612577 L343.5925741763866,67.25949380612577 L349.3497407328758,67.25949380612577 L349.3497407328758,67.25949380612577 Q350.17219309808854,67.25949380612577 350.77034027278876,66.71521325861394 L350.77034027278876,66.71521325861394 L350.77034027278876,66.71521325861394 Q351.36848744748886,66.1028976426631 351.36848744748886,65.35451188983437 L351.36848744748886,65.35451188983437 L351.36848744748886,39.09297547238807 L351.36848744748886,39.09297547238807 Q351.36848744748886,38.27655465112033 350.77034027278876,37.73227410360848 L350.77034027278876,37.73227410360848 L350.77034027278876,37.73227410360848 Q350.17219309808854,37.18799355609666 349.3497407328758,37.18799355609666 L349.3497407328758,37.18799355609666 L343.5925741763866,37.18799355609666 L343.5925741763866,37.18799355609666 Q342.77012181117385,37.18799355609666 342.17197463647375,37.73227410360848 L342.17197463647375,37.73227410360848 L342.17197463647375,37.73227410360848 Q341.64859585861115,38.27655465112033 341.64859585861115,39.09297547238807 zM399.7436402013652,76.3761929769491 L399.7436402013652,76.3761929769491 L397.50058829623947,76.3761929769491 L397.50058829623947,76.3761929769491 Q392.1920321207755,76.3761929769491 388.9022226599246,74.13103571846275 L388.9022226599246,74.13103571846275 L388.9022226599246,90.5955222806959 L374.9205324513081,90.5955222806959 L374.9205324513081,28.9557502749801 L386.73393915163643,28.9557502749801 L386.73393915163643,32.42553876536808 L386.73393915163643,32.42553876536808 Q389.9489802156499,28.003259316834317 397.50058829623947,28.003259316834317 L397.50058829623947,28.003259316834317 L399.7436402013652,28.003259316834317 L399.7436402013652,28.003259316834317 Q412.67857285425634,28.003259316834317 412.67857285425634,40.589746978045625 L412.67857285425634,40.589746978045625 L412.67857285425634,63.85774038417682 L412.67857285425634,63.85774038417682 Q412.67857285425634,76.3761929769491 399.7436402013652,76.3761929769491 zM388.9022226599246,39.09297547238807 L388.9022226599246,39.09297547238807 L388.9022226599246,65.35451188983437 L388.9022226599246,65.35451188983437 Q388.9022226599246,66.1028976426631 389.50036983462473,66.71521325861394 L389.50036983462473,66.71521325861394 L389.50036983462473,66.71521325861394 Q390.09851700932484,67.25949380612577 390.92096937453766,67.25949380612577 L390.92096937453766,67.25949380612577 L396.6781359310267,67.25949380612577 L396.6781359310267,67.25949380612577 Q397.50058829623947,67.25949380612577 398.09873547093974,66.71521325861394 L398.09873547093974,66.71521325861394 L398.09873547093974,66.71521325861394 Q398.69688264563985,66.1028976426631 398.69688264563985,65.35451188983437 L398.69688264563985,65.35451188983437 L398.69688264563985,39.09297547238807 L398.69688264563985,39.09297547238807 Q398.69688264563985,38.27655465112033 398.09873547093974,37.73227410360848 L398.09873547093974,37.73227410360848 L398.09873547093974,37.73227410360848 Q397.50058829623947,37.18799355609666 396.6781359310267,37.18799355609666 L396.6781359310267,37.18799355609666 L390.92096937453766,37.18799355609666 L390.92096937453766,37.18799355609666 Q390.09851700932484,37.18799355609666 389.50036983462473,37.73227410360848 L389.50036983462473,37.73227410360848 L389.50036983462473,37.73227410360848 Q388.9022226599246,38.27655465112033 388.9022226599246,39.09297547238807 z" stroke-width="0" id="svg_2"/></g><g data-v-fde0c5aa="" id="fa25dcb1-e531-4e9e-bfc3-01ebd3249ad9" stroke="none" fill="url(#dbaaa8b2-89ed-41c0-a28d-7df1634e2f10)" class=""><path d="M100.74029522335722,18.48155663801822 H48.30416059587036 a2.621806731374343,2.621806731374343 0 0 0 -2.621806731374343,2.621806731374343 v52.436134627486865 a2.621806731374343,2.621806731374343 0 0 0 2.621806731374343,2.621806731374343 h52.436134627486865 a2.621806731374343,2.621806731374343 0 0 0 2.621806731374343,-2.621806731374343 V21.103363369392554 a2.621806731374343,2.621806731374343 0 0 0 -2.621806731374343,-2.621806731374343 zm-2.621806731374343,52.436134627486865 H50.925967327244706 V23.725170100766903 h47.19252116473818 zM28.64061011056279,57.80865760863338 A9.176323559810202,9.176323559810202 0 1 0 37.81693367037299,66.98498116844357 A9.185936851158573,9.185936851158573 0 0 0 28.64061011056279,57.80865760863338 zm0,13.109033656871716 a3.932710097061515,3.932710097061515 0 1 1 3.932710097061515,-3.932710097061515 a3.9370797749471387,3.9370797749471387 0 0 1 -3.932710097061515,3.932710097061515 z" stroke-width="0" id="svg_3"/></g></g></svg>